<svg xmlns="http://www.w3.org/2000/svg" xmlns:xlink="http://www.w3.org/1999/xlink" width="12.32" height="14" viewBox="0 0 12.32 14">
  <defs>
    <style>
      .cls-1 {
        fill: #fff;
        fill-rule: evenodd;
        filter: url(#filter);
      }
    </style>
    <filter id="filter" x="1079.09" y="30" width="12.32" height="14" filterUnits="userSpaceOnUse">
      <feOffset result="offset" dy="-2" in="SourceAlpha"/>
      <feGaussianBlur result="blur"/>
      <feFlood result="flood" flood-color="#3b4f83" flood-opacity="0.5"/>
      <feComposite result="composite" operator="in" in2="blur"/>
      <feBlend result="blend" in="SourceGraphic"/>
    </filter>
  </defs>
  <path id="Rounded_Rectangle_5" data-name="Rounded Rectangle 5" class="cls-1" d="M1080.12,32h10.25a1.012,1.012,0,0,1,1.02,1V43a1.012,1.012,0,0,1-1.02,1h-3.14l0.07-4h2.04V38h-2.04V36h2.04V34h-2.04a2.175,2.175,0,0,0-2.05,2v2h-2.05v2h2.05v4h-5.13a1.012,1.012,0,0,1-1.02-1V33A1.012,1.012,0,0,1,1080.12,32Z" transform="translate(-1079.09 -30)"/>
</svg>
